# xmcd
#
# Track frame offsets: 
#        150
#        21301
#        38615
#        59643
#        79492
#        99669
#        122233
#        136413
#        151179
#        167901
#        182181
#        200169
#        222904
#        243196
#        260588
#
# Disc length: 3675 seconds
#
# Revision: 0
# Processed by: cddbd v1.5.2PL0 Copyright (c) Steve Scherf et al.
# Submitted via: ExactAudioCopyFreeDBPlugin 1.0
#
DISCID=df0e590f
DTITLE=Rachel Morrison - Celtic Moods
DYEAR=2015
DGENRE=Folk
TTITLE0=Orinoco Flow
TTITLE1=Linger
TTITLE2=My Heart Will Go On
TTITLE3=Have I told You Lately
TTITLE4=When You Say Nothing At All
TTITLE5=Sail Away
TTITLE6=Baby Can I Hold You
TTITLE7=Evergreen
TTITLE8=Show Me Heaven
TTITLE9=Martha's Harbour
TTITLE10=I Will Always Love You
TTITLE11=Everybody Hurts
TTITLE12=Dreams
TTITLE13=The Wind Beneath My Wings
TTITLE14=Songbird
EXTD=
EXTT0=
EXTT1=
EXTT2=
EXTT3=
EXTT4=
EXTT5=
EXTT6=
EXTT7=
EXTT8=
EXTT9=
EXTT10=
EXTT11=
EXTT12=
EXTT13=
EXTT14=
PLAYORDER=
